<?xml version="1.0" encoding="UTF-8"?><svg id="Layer_2" xmlns="http://www.w3.org/2000/svg" viewBox="0 0 203.36 210.77"><defs><style>.cls-1{fill:#fabe00;}.cls-2{fill:#004a86;}.cls-3{fill:#003567;}.cls-4{fill:#e60013;}.cls-5{fill:#fff;}.cls-6{fill:#ffe100;}.cls-7{fill:#e5d8ca;}.cls-8{fill:#9fa0a0;}.cls-9{fill:#b60007;}.cls-10{fill:#a5896e;}.cls-11{fill:#be9e7f;}.cls-12{fill:#dbb400;}.cls-13{fill:#dcdddd;}.cls-14{fill:#d56949;}.cls-15{fill:#c7000d;}.cls-16{fill:#decebd;}.cls-17{fill:#445057;}.cls-18{fill:#0e141b;}.cls-19{fill:#542500;}.cls-20{fill:#763b01;}</style></defs><g id="CMYK"><path class="cls-11" d="m43.35,148.9c-1.58.17-14.25,2.75-17.83,3.42s-12.92,3.08-12.92,3.08c.08,5.25.42,25.42.42,28.25s.42,23.33.58,25.5c3.67-1,27.67-7.67,31-8.17-.08-4.33-.92-42.92-.92-45.75s-.33-6.33-.33-6.33Z"/><path class="cls-10" d="m1.04,151.74s.19,29.81.31,32.94.69,22.06.69,22.06c2.31.56,11.81,2.56,11.81,2.56l-1.31-54.19-11.5-3.37Z"/><polygon class="cls-16" points="1.92 151.49 12.54 155.11 42.73 148.92 34.48 145.24 1.92 151.49"/><path class="cls-7" d="m33.59,178.08l3.88-.72c0,5.37-1.9,9.45-6.75,10.19-4.48.68-7.3-2.49-8.12-7.44l4.5-.83c-.06-1.86.94-4.29,3-4.61s3.42,1.31,3.49,3.41Z"/><path class="cls-14" d="m33.67,178.26l3.69-.65c-.5-5.65-3.36-9.02-8-8.5-3.38.38-6.96,3.63-6.5,11.06l4.25-.75c0-2.06.75-4.31,2.94-4.62s3.44.99,3.63,3.46Z"/><path class="cls-18" d="m13.77,209.84s-.1,0-.14-.01c-2.83-.49-9.5-1.75-11.9-2.35-.37-.09-.64-.42-.64-.81,0,0-1.15-50.82-1.08-55.12,0-.37.25-.69.6-.8,1.44-.45,28.68-5.3,33.89-6.03.14-.02.28,0,.42.05.6.23,6.52,2.24,9.04,3.35.29.13.48.4.5.71.25,3.28.75,46.36.75,51.82,0,.38-.25.71-.62.82-1.97.56-27.66,7.52-30.59,8.33-.07.02-.15.03-.23.03Zm-11-3.86c2.67.61,8.22,1.92,10.89,2.38,3.01-.83,27.48-7.5,29.94-8.19-.03-7.26-.57-45.08-.82-50.7-2.29-.98-7.67-3.28-8.24-3.49-5.59.81-28.72,5.4-32.84,6.26,0,6.4,1.07,53.73,1.07,53.73Z"/><path class="cls-18" d="m13.1,209.05c-.17-3.25-1.35-47.4-1.35-53.94,0-.38.25-.71.61-.82,3.23-.94,22.07-4.92,29.73-6.05.52-.08,2.07,1.44,1.61,1.5-6.06.72-25.44,4.77-30.25,6.01.05,8.36.86,49.88,1.02,53.04.02.47-1.35.7-1.38.25Z"/><path class="cls-18" d="m12.6,155.96c-.1,0-.19-.02-.29-.05-1.21-.44-3.55-1.11-5.81-1.76-2.2-.63-4.48-1.29-5.92-1.78-.44-.15-.68-.64-.53-1.08.15-.45.64-.68,1.08-.53,1.4.48,3.66,1.13,5.84,1.75,2.39.69,4.66,1.33,5.92,1.79.44.16.67.65.51,1.09-.13.35-.45.56-.8.56Z"/><path class="cls-18" d="m6.79,207.61c-.01-1.8-.83-51.38-.75-54.25.01-.47,1.58-.16,1.56.31-.08,2.83.55,52.32.56,54.12,0,.47-1.37.28-1.38-.19Z"/><path class="cls-18" d="m6.73,152.67c6.14-1.33,22.61-4.54,30.62-5.97.58-.1,1.81.7,1.34.78-6.54,1.11-22.26,4.35-29.97,5.97-.74.16-2.46-.68-2-.78Z"/><path class="cls-18" d="m21.52,179.15c0-5.93,3.46-10.35,8.21-10.83,3.9-.4,8.58,2.42,8.58,9.54,0,5.88-3.01,9.77-7.42,10.42-4.92.73-9.38-2.69-9.38-9.12Zm8.42-9.32c-3.84.39-6.84,4.32-6.84,9.34,0,5.89,4.05,8.11,7.58,7.6,3.56-.53,5.98-3.98,5.98-9.04,0-6.05-3.95-8.18-6.73-7.9Z"/><path class="cls-18" d="m27.23,180.09c-2.46.46-4.39.81-4.39.81-.05,0-.77-1.59-.31-1.67,0,0,1.92-.36,4.37-.81l.33,1.67Z"/><path class="cls-18" d="m33.53,177.2c1.8-.33,3.21-.58,3.62-.64.46-.07.72,1.61.25,1.68-.4.06-1.81.31-3.61.64l-.27-1.68Z"/><path class="cls-6" d="m155.52,56.65c-8.42,4.29-31.25,18.5-37.88,23.62,2.75,7.12,17.38,41.25,19,44.12-4.38.75-14.12,1.75-14.12,1.75,1,4.5,5.25,20.75,6.38,23.62-2,.37-3.5.75-3.5.75,2.5,1,5.62,1.37,5.62,1.37-.62,1-2,2.87-2,2.87.88.5,2.88,1.62,2.88,1.62-.88,1.25-2.5,3.87-2.5,3.87,3.75-.75,14.62-3,14.62-3-1.38-5.12-4.38-16.37-5.12-20.25,2.88-.5,16.5-2.25,18.62-2.5-1.62-4-8.25-22.75-9-25.5,3.25-1.62,48-19.87,53.62-21.75-.12-5.75.12-47.75.12-51.75-3.62,1.25-20.25,7.62-46.75,21.12Z"/><path class="cls-1" d="m129.39,160.28c3.75-.75,14.62-3,14.62-3-.26-.95-.57-2.11-.91-3.4-3.53.89-7.96,2.16-11.83,3.44-.86,1.31-1.89,2.96-1.89,2.96Z"/><path class="cls-20" d="m100.27,177.65c-2.52.79-11.08,3.33-12.92,3.92s-1.67,7.08,1.33,6.67,37.25-8.58,38.83-9.17c-1.08-3.42-3.75-14.75-4.25-17.25l5.58-1.08c1.42-1.42,3.5-4.17,3.5-4.17l-3.92-1.42,2.58-3.25-6.25-1.33-14.42,1.75c.92,4.58,4.25,17.17,5,19.83-3.25,1.5-11.08,4.25-15.08,5.5Z"/><path class="cls-19" d="m128.85,160.74c1.03-1.03,2.42-2.77,3.09-3.64-6.27,2.03-11.3,4.12-9.01,4.72.11.03.24.07.35.1,0-.03-.02-.08-.02-.11l5.58-1.08Z"/><path class="cls-1" d="m202.19,83.4c-22.17,7.92-56.17,23.33-54.25,25.33,5.17-2.08,47.75-19.5,54.21-21.46l.04-3.87Z"/><path class="cls-1" d="m156.43,131.24c-4.42.5-19.92,4.08-18.08,5.58l19.17-2.29-1.08-3.29Z"/><path class="cls-19" d="m126.64,175.96c-4.5,1.25-38.94,10.44-39.81,10.81s-.81,2.06,2.88,1.37,37.81-9.08,37.81-9.08l-.88-3.1Z"/><path class="cls-20" d="m127.58,160.09c.91-.75,3.14-2.99,3.2-3.05-.05-.02-1.06-.42-1.98-.7-1.71-.53-1.89-1-.68-2.26.46-.48.99-1.07,1.53-1.66-1.57-.3-4.06-.8-5.64-1.17-.46-.11,2.58-1.28,3.14-1.15,1.11.26,2.2.51,3.2.73,1.94.43,2.17.95.82,2.44-.48.53-.98,1.08-1.43,1.56.31.1,1.06.39,1.7.63,1.93.72,2.03,1.11.57,2.75-.67.75-1.51,1.7-1.87,2.06-.34.35-2.93.11-2.56-.19Z"/><path class="cls-19" d="m130.15,160.28c.36-.37,1.2-1.31,1.87-2.06.58-.65.9-1.09.97-1.45-.98.31-1.95.62-2.87.94-.75.74-1.94,1.89-2.54,2.39-.36.3,2.23.53,2.56.19Z"/><path class="cls-18" d="m90.92,187.06c8.66-1.83,26.91-6.38,35.41-8.66-1.11-3.87-3.13-12.32-4.06-16.66-.16-.75-.07-.89.69-1.02,7.42-1.24,19.89-4.33,19.89-4.33-1.45-4.54-5.07-19.28-5.07-19.28-.2-.76-.09-.95.71-1.06,2.35-.32,14.95-2.03,17.87-2.41-2.17-5.22-7.02-18.9-8.73-24.5-.18-.6-.12-.73.43-1,6.71-3.44,42.16-17.42,53.03-21.34-.14-10.97.15-41.4.31-49.86-27.21,9.73-59.21,26.79-82.5,43.77,3.91,10.01,12.39,30.12,18.07,42.22,1.05,2.24,1.02,2.4-1.42,2.65-2.31.23-8.94,1.32-11.96,1.56,1.56,6.45,3.93,16.18,5.8,21.16.77,2.05.66,2.32-1.53,2.64-4.92.73-10.28,1.66-16.46,2.39,1.14,5.01,3.75,15.49,4.85,18.79.21.63.14.78-.46,1.05-4.29,1.91-17.88,6.11-25.86,8.44-4.2,1.23-4.59-.06-.41-1.34,8.56-2.62,20.29-6.48,24.87-8.35-1.24-3.97-3.76-13.39-4.87-18.23-.43-1.88-.28-2.05,1.77-2.29,6.15-.72,11.73-1.46,16.62-2.18-1.99-5.16-4.93-15.67-6.39-21.65-.53-2.15-.39-2.25,1.64-2.43,3.82-.36,10.18-1.03,12.36-1.25-5.81-12.35-15.19-33.44-19.01-43.31-.2-.52-.16-.66.29-.99,23.38-17.14,56.54-34.74,84.05-44.61,2.36-.85,2.55-.76,2.49,2.18-.17,9.4-.42,40.2-.27,50.35,0,.46-.07.64-.56.81-9.82,3.49-44.88,17.07-53.06,21.02,2.03,6.41,7.53,20.97,9.25,24.88.34.78.32,1.05-.66,1.19-3.19.43-16.18,1.92-18.38,2.21,0,0,3.95,14.98,5.4,19.35.25.74.25.9-.62,1.1,0,0-13.25,2.99-20.33,4.19,1.09,4.87,3.36,13.47,4.29,16.57.21.71.08.88-.59,1.06-8.05,2.2-27.57,6.72-36.62,8.64-4.51.96-4.73-.52-.29-1.46Z"/><path class="cls-6" d="m81.27,52.9c-21.05,0-42.75,17.31-42.75,38.92,0,22.76,21.25,32.75,41.25,32.75,22.84,0,47.17-7.1,47.17-33.75,0-23.88-23.06-37.92-45.67-37.92Z"/><path class="cls-6" d="m47.02,69.49c-7.62-12.34-9.95-18.35-12.67-29.83,1.92-4.92,8.92-19.17,14.25-22.25,5.14,14.81,9,27.87,9,42.58,0,8.07-8.5,12.88-10.58,9.5Z"/><path class="cls-6" d="m107.02,59.24c11.62-17.42,26.28-28.43,39.67-34.17,2.1,6.66,2.24,16.9-.33,24.42-7.65,6.12-20.63,13.88-29.67,17.33-7.81,2.98-13.11-2.42-9.67-7.58Z"/><path class="cls-6" d="m53.77,199.15c6.42,0,22.58-2.92,26.92-2.92,6.83,0,19,3.17,24.92,3.17,13.83,0,22-7.22,22-19.5,0-10.82-3.59-23.64-8.5-34.17-1.75-3.75-7.58-24.33-8.67-27.75s-51.67-1.08-53.33,1.58-4.83,15.33-5.83,17.67c-3.91,9.12-9.33,30.78-9.33,45.67,0,6.4,3.57,16.25,11.83,16.25Z"/><path class="cls-6" d="m46.85,195.99c-3.18,3.97-4.47,9.24-2.75,11.17-.08,1.33-.33,2.58.67,2.83s3.25-.75,3.75-1.25c.75.58,4.25.25,8-2.33s7.92-6.5,8.83-8.42c1.92-4-16.35-4.68-18.5-2Z"/><path class="cls-6" d="m107.69,199.15c4.73,6.12,12.22,10.41,15.08,9.33,1.17.67,2.75,1.08,3.5.75s.75-1.17.75-2.08c.67-.83,1.42-3.58.25-6.5s-3-5.75-4.58-7.42c-3.82-4.02-18.42,1.48-15,5.92Z"/><path class="cls-6" d="m39.54,99.36c-1.06-.81-3-2.94-3-2.94-.5-1.44-.75-2.87-1.62-3s-2.12,1.12-2.12,1.12c-1.38-.87-3.06-1.87-3.75-1.69s-1.19,1.81-1.19,1.81c-1.38,0-2.94.19-3.44.62s-.12,2.81-.12,2.81c-1.06.44-2.56,1.19-2.62,1.75s1.25,2.87,1.25,2.87c-1,.62-2.06,1.5-2.06,2.19s2,2.06,2,2.06c3.26,8.7,16.83,29.41,27,34.06,2.19,1,5.69-3,6.5-4.87s4.25-14.75,1.5-16.19-8.1-4.53-10.94-7.5c-5.5-5.75-7.38-13.12-7.38-13.12Z"/><path class="cls-9" d="m78.06,94.03c1.46-.07,7.54,2.46,11.04,2.46-.12,1.79-1.38,7.08-2.12,8.75-2.63-1.58-5.54-2.42-7.88-1.79-1.25.33-4,1.5-5.5,3.67-1.29-2.12-3.25-7.79-3.71-10.75,1.5-.25,6.5-2.25,8.17-2.33Z"/><path class="cls-4" d="m79.85,113.44c1.38,0,5.12-2.62,7.12-8.21-4.47-2.87-10.24-3.03-13.38,1.87.88,1.75,3.42,6.33,6.25,6.33Z"/><path class="cls-18" d="m36.35.74c-2.8.32-4.05,11.26-4.25,19.75-.08,3.58.33,11.58,2.25,18.67,1.83-4,7.75-16.5,14.08-21.5C44.69,7.74,38.52.49,36.35.74Z"/><path class="cls-18" d="m165.85,22.11c-.9-2.7-11.61-.99-19.17,2.96,1.85,6.14,2.6,16.06-.33,24.42,13.89-12.18,21.24-22.15,19.5-27.37Z"/><path class="cls-1" d="m75.27,122.99c0-.67,9.33-1,9.33-.17s-3,2.17-4.67,2.17-4.67-1-4.67-2Z"/><path class="cls-1" d="m43.27,189.99c.5,2,6.33,5.83,11.33,5.83s20.33-2.67,26-2.67,19.33,2.67,25.33,2.67c8.95,0,18.68-5.35,21-10.17-1.25,7.33-9.68,13.75-21,13.75-6.33,0-17.83-3.08-24.83-3.08-6.5,0-18.75,2.84-27.33,2.84s-10.5-9.17-10.5-9.17Z"/><path class="cls-1" d="m44.94,199.74c2.25-.58,9.92,1.33,14,4.42,1.92-.92,4.92-3.66,6.42-6.16-3.33.83-10.67,1.41-12.75,1.08s-4.75-2-5.75-3.08c-.75,1-1.92,3.75-1.92,3.75Z"/><path class="cls-1" d="m111.94,203.74c2.83-3.17,9.42-7.42,13.08-7.25-.75-1.33-2.33-3.25-2.33-3.25-1.33,1.5-4.08,3.5-6.5,4.41s-5.75,1.34-8.5,1.5c1.08,2,4.25,4.58,4.25,4.58Z"/><path class="cls-1" d="m28.85,117.65c2,2.83,15.17,16.67,22.33,20.42l-1.33,2.98c-3.5-2.23-10.42-7.98-14.58-13.06s-6.42-10.33-6.42-10.33Z"/><path class="cls-1" d="m117.1,206.74c1.38,1.06,4.56,2.25,5.62,2.19,1.19.56,3.25,1.12,3.69.62s.61-2.39.61-2.39c.39-.29,1.08-1.42,1.02-2.17-3.62.75-10.94,1.75-10.94,1.75Z"/><path class="cls-18" d="m111.38,117.23c4.74-2.43,14.44-9.51,14.44-26.65,0-9.01-3.64-17.54-10.26-24.11-1.18-1.18-.44-2.04.79-.92,7.44,6.69,11.38,15.65,11.38,25.12,0,18.02-9.69,25.19-15.69,27.69-2.15.9-2.7-.08-.66-1.13Z"/><path class="cls-18" d="m56.44,60.15c7.29-5.37,15.83-8.02,25-8.02,10.3,0,20.08,2.77,27.29,7.68,1.43.98.92,1.81-.5.95-7.47-4.54-16.72-6.93-26.8-6.93-8.89,0-17.33,2.5-24.44,7.23-1.33.88-1.89.06-.56-.92Z"/><path class="cls-18" d="m56.35,120.05c-12-5.56-18.81-16.47-18.81-28.95,0-7.93,3.25-16.05,9.31-22.55,1.51-1.62,2.48-.99,1.11.66-5.41,6.56-8.38,14.3-8.38,21.88,0,11.71,6.56,22.23,17.21,27.76,2.17,1.13,1.68,2.18-.45,1.19Z"/><path class="cls-18" d="m46.17,69.42C25.43,38.28,30.48,1.69,36.31.02c2.56-.73,19.4,15.15,21.92,59.09.02.28-1.39,1.21-1.42.74C54.93,23.23,39.49,2,36.68,1.67c-3.67,1.33-8.83,37.27,10.6,66.8.17.26-1.01,1.12-1.12.95Z"/><path class="cls-18" d="m34.59,37.23c2.33-7.25,8.45-16.56,12.89-19.93.37-.28,1.43,1.04,1.06,1.33-4.14,3.29-11.26,15.15-13.18,21.54-.11.37-.9-2.52-.77-2.94Z"/><path class="cls-18" d="m105.17,200.22c-7.19,0-16.48-3.22-24.07-3.22-8.46,0-19.58,3.08-26.5,3.08-8.11,0-13.81-7.51-13.81-19.12s3.56-27.67,9.4-42.81c1.21-3.15,2.41-2.75,1.3.42-5.27,14.99-8.53,31.17-8.53,42.39s4.46,17.42,11.65,17.42c6.17,0,18.08-2.71,26.5-2.71,9.17,0,18.5,2.85,24.07,2.85,13.76,0,21.33-6.46,21.33-18.2,0-7-2.73-24.37-8.17-34.09-.23-.41,1.54-.16,1.77.26,5.56,10.12,8.56,26.96,8.56,33.83,0,12.65-8.86,19.91-23.5,19.91Z"/><path class="cls-18" d="m49.23,141.92c-9.67-5.76-22.36-22.25-26.97-34.2-.62-.48-2.33-1.91-2.33-2.91,0-.86,1.08-1.74,2.01-2.28-.56-.95-1.32-2.47-.98-3.25.31-.72,1.61-1.29,2.68-1.55-.2-1.12-.33-2.63.22-3.18.56-.56,2.3-.56,3.37-.46.32-.82.9-1.87,1.77-2.06.72-.16,1.68.36,3.66,1.65.68-.57,1.67-1.18,2.44-1.08,1.17.15,1.93,2.61,2.16,3.44.68.63,1.75,1.82,2.6,2.83.41.49-.06,2.67-.34,2.29-.75-1-2.73-3.29-3.58-4.01-.14-.12-.23-.28-.28-.46-.17-.72-.41-2.2-.93-2.36-.34-.1-1.78.95-2.04.94-.14,0-2.82-1.71-3.37-1.55-.2.06-1.05,1.74-1.23,1.84-.19.11-2.51-.24-2.93.23-.36.41.07,2.77-.09,2.98-.16.2-2.3.71-2.47,1.17-.19.51,1.16,2.8,1.08,3.06-.08.26-1.94,1.37-1.96,1.82-.03.53,1.19,1.28,1.75,1.67.14.1.25.24.31.4,4.42,11.69,17.07,27.48,26.53,33.12.4.24-.92,2-1.06,1.92Z"/><path class="cls-18" d="m57.53,74.42c-4.01,0-7.4,3.82-7.4,8.11s3.09,7.66,7.73,7.66c3.95,0,7.21-3.2,7.21-7.66s-2.97-8.11-7.53-8.11Z"/><path class="cls-5" d="m58.33,75.37c1.79,0,3.06,1.56,3.06,3.15s-1.42,2.96-3.12,2.96-2.9-1.32-2.9-2.99c0-1.56,1.27-3.12,2.96-3.12Z"/><path class="cls-18" d="m102.47,74.1c4.55,0,8.16,4.07,8.16,8.63,0,4.86-4.18,7.94-8.07,7.94-4.61,0-7.81-3.71-7.81-7.9,0-4.74,3.39-8.67,7.72-8.67Z"/><path class="cls-5" d="m101.43,75.11c1.76,0,3.13,1.54,3.13,3.15,0,1.49-.96,3.04-3.04,3.04-1.93,0-3.05-1.41-3.05-3,0-1.73,1.37-3.18,2.96-3.18Z"/><path class="cls-18" d="m77.1,89.49c0,.19.45.77,1.03.77s1.38-.42,1.38-.8-2.41-.39-2.41.03Z"/><path class="cls-18" d="m87.85,97.35c-3.15,0-7.4-2.45-9.69-2.45-2.03,0-5.19,2.32-8.69,2.32-1.42,0-2.69-.74-3.56-1.77-1.64-1.95-.84-2.71.84-.87.55.6,1.85.94,2.71.94,2.91,0,6.79-2.32,8.69-2.32,2.66,0,7,2.45,9.69,2.45,2.1,0,4.09-.53,4.91-1.26,1.68-1.51,2.45-.91.84.81-1.16,1.25-3.17,2.15-5.75,2.15Z"/><path class="cls-18" d="m79.8,114.14c-4.13,0-9.86-9.23-10.67-17.66-.04-.47,1.75-.66,1.8-.19.8,8.34,6.2,16.48,8.87,16.48,3.51,0,7.52-8.54,8.74-16.07.02-.15,1.9-.68,1.84-.22-1.12,7.54-5.48,17.66-10.58,17.66Z"/><path class="cls-18" d="m73.23,106.58c3.76-5.19,9.9-5.2,14.16-1.69.36.3-.39,1.39-.75,1.09-3.72-3.06-9.37-2.57-12.35,1.55-.17.23-1.33-.57-1.05-.95Z"/><path class="cls-4" d="m45.02,91.32c3.36-1.19,8.27,2.11,9.86,7.41,1.74,5.77-.22,10.1-3.2,11.09-2.91.97-7.56-1-9.51-6.8-2.09-6.21.04-10.7,2.84-11.7Z"/><path class="cls-4" d="m117.69,90.74c-4.62-1.49-9.04,2.26-10.72,7.73-1.59,5.18.97,10.23,4.88,11.35,3.8,1.08,8.47-1.55,10.08-7.2,1.51-5.28-.12-10.56-4.25-11.89Z"/><path class="cls-18" d="m43.6,208.11c-1.91-2.15-1.66-7.47,2.71-12.62.3-.36,1.77.84,1.47,1.19-3.11,3.68-4.06,7.51-3.61,9.53.1.44-.4,2.09-.57,1.9Z"/><path class="cls-18" d="m44.29,210.62c-1.83-.92-1.16-4.82,1.82-8.54,1.32-1.65,2.25-1.03.97.53-2.07,2.53-2.59,6.28-2.03,6.49.39.14,2.32-.34,3.41-1.29.35-.31,1.47.97,1.12,1.28-1.41,1.23-4.31,2.03-5.29,1.54Z"/><path class="cls-18" d="m48.16,209.4c-1.05-.84,0-4.02,2.26-6.63,1.33-1.54,2.18-.73.91.66-1.6,1.76-2.38,4.17-1.99,4.71.91,1.29,9.18-3.24,14.8-9.62.33-.37,2.85-.53,2.56-.16-5.91,7.59-16.3,12.83-18.54,11.04Z"/><path class="cls-18" d="m126.94,207.84c-.29,0-.84-1.34-.44-1.58,1.47-.88.49-6.39-4.55-12.38-.3-.36,1.29-1.5,1.59-1.14,6.41,7.62,6.05,15.1,3.4,15.1Z"/><path class="cls-18" d="m122.39,209.31c-.39-.27.58-1.67.97-1.4.54.38,2.08.81,2.46.55.8-.55.36-3.75-2.71-7.04-1.53-1.63-.74-2.46.81-.81,3.64,3.86,4.4,7.76,3.06,9.1-.54.54-2.94.73-4.59-.4Z"/><path class="cls-18" d="m106.87,199.93c-.3-.36,1.63-.7,1.79-.51,5.19,6.02,12.7,9.37,13.61,8.6.69-.58.34-2.43-2.82-5.01-1.43-1.16-.82-1.89.69-.75,4.53,3.41,4.42,5.75,3.37,6.91-1.05,1.16-9.34-.3-16.64-9.25Z"/><path class="cls-2" d="m81.6,24.9c-27.45,0-38.42,16.03-38.42,20.58,0,.5,4,4.83,9.75,7.33,6.4-4.51,14.6-7.92,24.25-7.92,13.02,0,26.73,4.54,33.67,9,1.75-2.33,8.58-10.25,10.67-11.92-11.4-11.66-26.93-17.08-39.92-17.08Z"/><path class="cls-2" d="m52.94,52.82l.35,2.79c.56-.31,1.88.06,1.94,2.25,7.69-3.39,16.21-4.87,25.25-4.87s20.82,2.59,26.54,6.25c.96-1.69,2.4-3.79,3.83-5.33-8.6-5.39-19.99-8.92-32.94-8.92-16.5,0-24.98,7.83-24.98,7.83Z"/><path class="cls-18" d="m78.79,53.05c8.17,0,20.46,2.18,25.06,4.94-7.12,5.78-21.89,11.81-32.88,11.81s-14.88-6.44-16.06-11.56c5.73-3.48,13.83-5.19,23.88-5.19Z"/><path class="cls-17" d="m73.19,53.61c-1.58,2.17-4.71,11.33-5.71,16.08-9.14-1.6-12.85-9.01-12.42-11.42.1-.58,5.69-2.68,9-3.54,3.5-.92,9.12-1.12,9.12-1.12Z"/><path class="cls-17" d="m75.39,53.61c-1.25,1.75-4.54,9.92-4.92,9.96s1.75-7.54,3.42-9.96h1.5Z"/><path class="cls-17" d="m76.02,53.53c-.67,1.12-2.79,5.83-2.38,6.04s3-5.38,3.71-6.08l-1.33.04Z"/><path class="cls-12" d="m54.2,55.52c-.54-.1-1.56.56-1.84,1.69-.28,1.12-.06,2.5.47,2.72.53.22,1.56-.37,1.97-1.66.41-1.28.06-2.62-.59-2.75Z"/><path class="cls-8" d="m72.04,74.61c12.09,0,30.18-9.06,33.81-14.19-.81-.5-1.62-1.75-1.56-2.37-4.56,4.87-23.97,11.87-32.62,11.87-9.78,0-15.51-5.36-16.88-11.66-.25.78-.69,1.66-1.97,1.66-2,6.58,4.71,14.69,19.22,14.69Z"/><path class="cls-5" d="m63.69,152.57c14.89,18.27,34.63,32.65,41.5,32.08,3.82-.32,9.37-10.26,8.5-13.17-.25-.83-1.5-1.42-2.92-2.17-7.83-4.14-25.8-18.63-33-25.83-4.58-4.58-15.23-15.14-20.67-23.91-3.13-1.65-10.13-5.83-12.88-10.33.32,14.21,10.99,32.94,19.46,43.33Z"/><path class="cls-4" d="m67.19,151.24c11.75,15.1,30.85,29.92,35.92,29.92.58,0,6.17-7.5,5.83-8.08s-23.5-16.92-33.25-26.92-18.71-21.85-21.4-27.92c-2.5-1.69-6.5-4.56-7.12-5.37,1.1,10.69,11.86,27.89,20.02,38.38Z"/><path class="cls-4" d="m118.92,155.42c-1.7.65-17.25,7.94-17.25,7.94,2.25,1.56,8.56,5.75,9.94,6.5s2.62,1.62,2.19,2.81c-1.31,3.55-4.25,10.8-8.06,11.81-.94.25-4.69-.44-5.81-1.12.38,2.12,2.44,8.56,5.44,12.81s7.38,9.19,9.12,9.69c5.88,1.68,16.98-.89,26.31-6,2.62-1.44,14.94-11.12,15.38-13s.56-5.31.25-6.62-11-22.94-11.31-24.37-2-6.87-2-6.87c-5.12,1.19-22.88,5.94-24.19,6.44Z"/><path class="cls-15" d="m133.85,202.74s-11.25,5.33-19.38,3.12c-1.76-.48-6.12-5.44-9.12-9.69s-5.06-10.69-5.44-12.81c1.12.69,4.88,1.37,5.81,1.12,3.81-1.02,6.75-8.26,8.06-11.81.44-1.19-.81-2.06-2.19-2.81s-7.69-4.94-9.94-6.5c0,0,15.55-7.29,17.25-7.94.04-.02.1-.04.17-.06,1.94,1.95,3.02,4.29,4.9,9.5.65,1.79,4.55,11.93,7.42,21.29.04.13-.13,1.01-.09,1.14.08.27,1.24.3,1.27.39.14.48-.46,2.86-.38,3.16.1.34.44-.21.59.1.9,1.89,5.98,3.14,8.32,2.55s13.5-9.58,14.83-13.75c.42,2,.92,7,.42,7.75s-7.42,7.17-11.08,9.5-9.25,4.91-11.42,5.75Z"/><path class="cls-5" d="m102.35,171.24c3.32,0,3.62,2.1,3.62,3.81,0,2.36-2.03,3.56-3.81,3.56s-3.62-1.71-3.62-3.69c0-2.08,1.23-3.69,3.81-3.69Z"/><polygon class="cls-10" points="97.23 155.42 93.23 156.86 100.1 161.86 97.23 155.42"/><polygon class="cls-10" points="97.1 154.8 101.35 163.24 109.35 159.55 104.73 148.61 97.1 154.8"/><polygon class="cls-10" points="104.42 146.61 109.1 159.61 118.73 155.05 114.17 143.8 113.1 143.36 104.42 146.61"/><path class="cls-11" d="m114.48,144.36l4.25,10.69,13.12-3.25-.06-1.06s-7.38-2.37-9.44-3.12-7.88-3.25-7.88-3.25Z"/><path class="cls-4" d="m137.69,178.69l11.58-7.08c-3.19-6.02-6.64-7.94-10-6.21-3.65,1.88-4.16,8.23-1.58,13.29Z"/><path class="cls-5" d="m137.69,178.69l11.58-7.08c1.94,4.29,2.92,9.72-.58,12.46-3.34,2.61-8.06-.19-11-5.37Z"/><path class="cls-10" d="m115.69,147.32c3.25,2.17,10.08,4.25,13.83,4.92l2.33-.44-.06-1.06s-5.02-1.58-7.94-2.75-9.25-3.92-9.25-3.92l1.08,3.25Z"/><path class="cls-15" d="m129.52,152.57c.58.75,2.74,3.22,4,3.17,1.26-.06,2.92-.92,3.5-.92s1.75.5,2.75.08,1.75-3.25,1.75-4.08,0,0,0,0c0,0-1.58,2.25-2.25,2.25s-2.92-1.12-2.92-1.12c0,0,.92-.87,0,0s-2.33,1.87-2.71,1.71-1.38-1.92-1.38-1.92l-2.75.83Z"/><path class="cls-1" d="m55.02,140.49c8,17.61,18.96,29.09,36.33,41.17,3.83,2.67,6.33,5.58,7.25,8.17.75,2.11,1.19,5.73-2.11,5.19l3.61,1.81h5.42c-1.58-2.92-4.96-9.58-5.6-13.46-6.4-2.87-18.81-11.37-25.23-18.37s-12.58-14.75-14.58-17.33-5.08-7.17-5.08-7.17Z"/><path class="cls-1" d="m54.27,68.49c2.61,5.44,11,9.08,20.5,9.08,13.14,0,28.49-8.63,30.83-16.83-10.27,9.18-24.72,13.87-33.56,13.87-11.56,0-17.77-6.12-17.77-6.12Z"/><path class="cls-3" d="m49.48,50.99c14.78-16.01,46.93-14.83,65.38-2-1.19,1.5-4,4.92-4,4.92-11.39-6.47-21.33-8.85-32.5-8.85-10.35,0-18.49,2.23-25.42,7.77l-3.46-1.83Z"/><path class="cls-3" d="m71.92,47.36c.88,1.5,4.19,4.19,7.44,4.19,4.21,0,8.33-2.23,9.94-5.69.81-1.75-8.38-2.87-8.38-2.87l-9,4.37Z"/><path class="cls-13" d="m79.48,169.17c6.73,6.51,21.91,14.03,25.12,13.62,2.07-.26,7.84-7.67,8.12-11.94.5.31,1.06.69.81,2-.74,3.89-4.29,10.26-7.81,11.62-1.12.44-5.94-.44-12-4.25s-14.25-11.06-14.25-11.06Z"/><path class="cls-13" d="m99.14,175.74c.52,1.18,2.88,1.94,4.67.92,1.38-.79,1.52-3.48.5-4.5,1.64,1.23,2.31,4.54.21,5.71-1.5.83-3.42.75-4.25.17s-1.12-2.29-1.12-2.29Z"/><path class="cls-18" d="m52.82,60.67c-1.11-.28-1.52-1.98-1.19-3.34.44-1.8,1.88-2.75,2.66-2.56,1.07.27,1.61,2.07,1.3,3.3-.45,1.79-1.83,2.85-2.77,2.61Zm1.13-4.57c-.27-.06-.85.33-1.13,1.48-.24.99.15,1.62.34,1.67.38.1.85-.15,1.13-1.26.23-.92.03-1.79-.34-1.88Z"/><path class="cls-18" d="m72.35,75.46c-16.94,0-22.06-9.17-20.17-15.56.13-.45,1.28-.17,1.15.28-1.45,4.88,3.07,13.57,19.02,13.57,11.62,0,27.84-7.6,32.97-13.82.3-.36,1.16.35.86.71-5.36,6.5-21.78,14.81-33.83,14.81Z"/><path class="cls-18" d="m71.35,70.59c-6.76,0-14.76-3.24-16.92-11.43-.1-.37.87-1.5.96-1.04.96,5.26,5.71,10.77,15.96,10.77s28.77-6.99,32.42-11.56c.29-.37.81.93.62,1.11-4.8,4.9-22.11,12.14-33.04,12.14Z"/><path class="cls-18" d="m54.98,57.4c11.92-6.58,35.67-6.83,49.33-.08.42.21.08,1.34-.35,1.15-13.45-6.05-37.61-5.98-48.78.14-.13.07-.4-1.09-.2-1.2Z"/><path class="cls-18" d="m52.6,55.92c-.1-.79-.17-1.84-.21-2.69-4.96-2.14-8.53-5.11-9.67-6.96-1.54-2.5,7.12-22.46,39.17-22.46,12.13,0,29.54,5.71,40.08,17.79.31.35-.68,1.17-1,.83-10.71-11.47-27.37-16.6-39.13-16.6-29.23,0-38.67,17.9-37.46,19.89.99,1.61,3.89,4.2,8.79,6.22.32.13.53.44.53.79,0,.78.09,1.68.19,2.5.02.13-1.24,1.11-1.29.68Z"/><path class="cls-18" d="m110.4,54.45c-18.88-11.13-43.5-11.75-57.13-1.22-.37.29-1.21-.67-.83-.96,14.6-11.27,38.58-10.62,58.5,1.12.4.24-.4,1.13-.53,1.05Z"/><path class="cls-18" d="m102.92,185.05c-9.52-2.54-24.21-13.56-36.25-27.81-13.88-16.43-22.29-33.88-23.08-47.87-.03-.47,1.22.59,1.27,1.06,2.81,31.26,41.06,68.65,58.28,73.24,1.41.37,2.07.32,2.93-.26,2.89-1.93,5.57-6.67,6.72-10.36.43-1.37.12-1.79-.73-2.21-16.3-8.11-48.1-37.67-55.45-50.91-.23-.41.83-.6,1.06-.19,6.71,12.07,40.29,42.46,55.06,49.81,2.27,1.13,2.26,2.77,1.86,4.05-1.2,3.85-4.03,9.02-7.4,11.27-1.01.67-1.96.81-4.27.19Z"/><path class="cls-18" d="m103.19,182.08c-.11,0-.22-.02-.32-.06-27.54-11.27-54.17-51.36-56.64-70.29-.06-.47,1.24.98,1.31,1.37,3.29,18.48,29.65,56.27,55.53,67.16,1.89-1.49,3.95-4.64,4.92-7.03-27.89-18.43-47.64-41.26-54.51-55-.21-.42,1.16-.3,1.38.12,9.41,18.82,35.16,41.05,54.63,53.83.32.21.46.62.34.99-.99,2.88-3.7,7.09-6.16,8.76-.14.1-.31.15-.48.15Z"/><path class="cls-18" d="m99.85,178.64c-2.24-1.42-2.69-4.31-1.5-6.19,1.33-2.09,4.58-2.72,6.53-1.16,2.01,1.61,2.5,4.28.97,6.41-1.21,1.67-4.22,2.07-6,.94Zm-.24-5.41c-.78,1.23-.51,3.09,1.03,4.08,1.27.81,3.2.51,3.96-.54,1-1.39.77-3.29-.53-4.33-1.25-1-3.47-.76-4.46.79Z"/><path class="cls-18" d="m115.1,207.11c-5.96-1.33-14.53-15.47-16.21-23.83-.09-.46,1.62-.42,1.71.04,1.68,8.42,10.15,20.57,15.1,21.67,5.49,1.22,13.85-.68,23.53-5.35,5.51-2.66,14.68-10.42,16.03-13.12.29-.67.42-5.26.18-6.45-.2-.78-10.5-22.51-10.6-22.72-.26-.55-1.57-6.51-1.99-7.47-4.24,1-20.01,5.35-23.76,6.41-1.76.9-13.31,6.13-16.72,7.47-.22.09-1.56-1.25-1.12-1.4,2.42-.84,15.6-7.19,17.11-7.99.05-.03,21.5-5.61,24.74-6.29.31-.07.64.05.84.3.68.85,2.25,7.85,2.44,8.25.1.21,10.93,22.25,11.1,23.06.26,1.29.23,6.44-.32,7.55-1.64,3.27-11.58,11.24-17.17,13.93-10.87,5.25-19.82,7.07-24.87,5.94Z"/><path class="cls-18" d="m131.28,190.66c.35-.68.74-1.82.9-2.65-1.73.75-2.19.89-1.71-.7.16-.54.21-.93.09-1.97-.16-.71-3.4-10.5-6.93-20.01-1.04-2.81-.04-3.19,1-.37,4.78,12.88,7.04,18.58,7.29,19.37.28.9.2,2.05-.38,2.77.94-.44,1.53-.5,1.72-.28.31.36-.07,2.35-.84,3.74,3.88-2.4,4.5-1.82,1.5.17-.41.27-.94.66-1.36.99-1.57,1.21-2.11.54-1.3-1.04Z"/><path class="cls-18" d="m133.29,193.49c.62-.62,1.4-1.67,1.56-2.02.75-1.64,1.59-1.29.85.35-.25.56-.9,1.62-1.75,2.29-1.3,1.01-1.99.7-.67-.62Z"/><path class="cls-18" d="m135.39,195.53c.19-.44.48-1.17.54-1.4.44-1.56,1.29-1.4.98.15-.08.4-.3,1.09-.62,1.67-.87,1.54-1.65,1.35-.9-.42Z"/><path class="cls-18" d="m143.85,197.07c1.74-1.2,4.89-4.76,6.46-7.37,1.39-2.32,2.38-2.03,1,.29-1.31,2.21-3.26,5.31-5.12,7.08-.52.5-2.72.27-2.34,0Z"/><path class="cls-18" d="m136.93,179.08c-2.88-5.56-2.05-12,1.76-14.22,3.25-1.91,8.08-.37,11.43,6.33,2.5,5,2.4,11.62-1.72,13.76-3.08,1.6-8.15.54-11.46-5.86Zm2.56-12.91c-2.94,1.72-3.44,7.5-1.05,12.13,2.72,5.25,6.47,6.71,9.19,5.3,3.18-1.65,3.06-7.46.96-11.66-3.05-6.09-6.51-7.29-9.1-5.77Z"/><path class="cls-18" d="m137.18,177.98c.84-.58,11.35-6.72,11.79-6.99.4-.24,1.28,1.21.88,1.46-.45.27-10.92,6.39-11.71,6.93-.15.1-1.35-1.13-.97-1.4Z"/><path class="cls-18" d="m118.1,155.82c-.79-2.04-3.96-9.58-4.67-11.54-.16-.44,1.74-.2,1.82.03,1.04,2.8,3.48,9.26,4.14,10.84.18.43-1.17.97-1.29.67Z"/><path class="cls-18" d="m108.56,160.24c-.92-2.15-4.49-11.19-5.15-13.45-.12-.42.1-.87.51-1.03,1.02-.39,6.59-2.47,7.63-2.87.3-.12,2.36,1.05,1.93,1.22-1,.41-7.32,2.61-8.2,2.95.97,3,3.74,10.66,4.54,12.53.19.43-1.12.97-1.26.65Z"/><path class="cls-18" d="m99.48,161.85c-1.13-2.3-2.4-5.62-2.92-6.83-.15-.34-.06-.73.21-.97,1.39-1.25,7.12-6.07,7.49-6.36.37-.29,1.42,1.04,1.06,1.33-.37.29-5.78,4.49-7.25,5.75.81,1.83,2.97,6.39,3.91,8.17.22.42-2.27-.63-2.49-1.09Z"/><path class="cls-18" d="m92.99,155.92c.59-.17,3.78-1.14,3.98-1.22.43-.18.95,1.02.51,1.2-.19.08-2.83,1.24-3.6,1.51-.16.06-1.35-1.36-.9-1.49Z"/><path class="cls-18" d="m104.6,161.74c-.55-1.29-3.62-7.47-4.58-9.58-.19-.43,1.04-1.2,1.23-.77.96,2.12,3.89,8.73,4.44,10.02.19.43-.96.66-1.09.34Z"/><path class="cls-18" d="m113.23,158.07c-.5-1.27-4.7-12.21-4.98-12.97-.16-.44,1.03-1.05,1.19-.61.29.78,4.42,11.5,4.92,12.75.17.44-.99,1.17-1.12.83Z"/><path class="cls-5" d="m69.73,42.42l17.94-.94c-.18,5.65-4.57,8.25-9.19,8.56-4.21.28-8.29-2.27-8.75-7.62Z"/><path class="cls-4" d="m69.73,42.42l17.94-.94c-.36-5.22-3.7-8.54-9.5-8.31-5.9.23-8.62,3.86-8.44,9.25Z"/><path class="cls-18" d="m78.14,50.74c-5.17,0-8.75-3.25-9.21-8.25-.56-6.1,4.12-9.71,8.83-10,6.21-.38,10.13,2.84,10.58,8.5.48,6.06-5.36,9.75-10.21,9.75Zm-.4-16.83c-4.63.29-7.74,3.78-7.3,8.58.43,4.71,4.19,6.82,7.72,6.82,4.61,0,9.11-3.41,8.74-8.15-.39-4.9-3.81-7.57-9.15-7.24Z"/><path class="cls-18" d="m69.58,41.71c1.37-.03,16.59-.82,18.13-.93.46-.04.7,1.42.23,1.45-1.55.11-16.83.85-18.21.87,0,0-.62-1.39-.15-1.4Z"/><path class="cls-5" d="m78.1,37.4c2.49,0,4.46,1.56,4.46,4.25,0,2.04-1.51,4.29-4.33,4.29s-4.5-2.17-4.5-3.71c0-2.71,1.83-4.83,4.38-4.83Z"/><path class="cls-5" d="m141.73,170.57c1.21-.69,3.83.29,4.83,2.75s.92,5.04-.08,5.5-3.38.63-4.96-2.21-.96-5.37.21-6.04Z"/><path class="cls-18" d="m78.19,46.65c-2.88.02-5.2-1.88-5.32-4.65-.13-2.86,2.22-5.19,4.87-5.39,3.21-.26,5.54,1.77,5.7,4.97.13,2.54-1.96,5.05-5.24,5.07Zm-.04-1.5c2.02-.01,3.68-1.61,3.58-3.49-.12-2.36-1.34-3.84-4.09-3.62-1.54.12-3.18,1.74-3.08,3.88.07,1.57,1.35,3.25,3.58,3.23Z"/><path class="cls-18" d="m140.69,176.59c-1.29-2.43-.92-6.04.92-6.94,1.57-.76,3.93-.29,5.68,3.18,1.87,3.71.79,5.92-.68,6.78-1.86,1.08-4.31,0-5.92-3.02Zm1.54-5.62c-.89.43-1.06,2.9-.04,4.83,1.29,2.41,2.74,2.95,3.58,2.46,1.1-.64,1.09-2.47,0-4.65-.99-1.96-2.49-3.15-3.53-2.63Z"/><path class="cls-18" d="m30.16,183.33c-2.18,0-4.03-2.03-4.03-4.43,0-3.05,1.98-4.78,3.95-5.13,2.37-.43,4.33,1.63,4.33,4.42s-1.41,4.73-3.68,5.09c-.2.03-.39.05-.58.05Zm.53-7.91c-.1,0-.21,0-.31.03-1.18.21-2.55,1.24-2.55,3.46,0,1.57,1.25,2.92,2.64,2.7,1.42-.23,2.24-1.47,2.24-3.41,0-1.61-.85-2.78-2.02-2.78Z"/><path class="cls-6" d="m106.27,139.74c4.79,3.39,18.25,8.71,25.42,10.79.58,1.46,1.17,2.83,1.96,3.12s2.71-1.71,2.71-1.71c.62.5,2.33,1.25,2.92,1.12s1.58-2.25,1.58-2.25c1.08-.04,2.33-.33,2.5-.67s.38-1.87.38-1.87c.58-.08,1.38-.33,1.67-.75s.04-2.62.04-2.62c.71-.37,1.33-1.04,1.33-1.5s.25-1.87-2.38-4.54-7.63-7.54-10.17-9.46-8.12-5.96-10.83-7.33-8.79-4.62-10.71-5-3.75-.33-3.75-.33c-2.42.12-9.66,18.05-2.67,23Z"/><path class="cls-1" d="m106.54,140.24c-.44-.36-.94-1.44.75-.94s7.88,2.44,11.5,4c4.15,1.79,12.81,5.62,13.56,6.87-1.62-.06-9.5-2.12-13.19-3.87s-11.08-4.81-12.62-6.06Z"/><path class="cls-18" d="m56.35,120.05c-12-5.56-18.81-16.47-18.81-28.95,0-7.93,3.25-16.05,9.31-22.55,1.51-1.62,2.48-.99,1.11.66-5.41,6.56-8.38,14.3-8.38,21.88,0,11.71,6.56,22.23,17.21,27.76,2.17,1.13,1.68,2.18-.45,1.19Z"/><path class="cls-18" d="m133.59,154.62c-.89-.15-1.94-2.08-2.37-3.21-4.73-1.33-19.78-7.13-24.33-10.47-1.84-1.35-1.23-2.34.61-1.19,4.29,2.69,20.24,9.04,24.59,10.13.31.08.55.32.62.63.16.7.61,2.19,1.21,2.32.56.12,1.93-1.63,2.2-1.7.27-.07,2.6,1.13,2.89,1.05.29-.08,1.14-1.8,1.32-1.98.18-.18,1.99-.23,2.22-.49.2-.23.08-1.73.24-1.93.16-.2,1.56-.51,1.71-.73.23-.34-.09-2.21-.02-2.37.07-.16,1.42-1.25,1.5-1.59.4-1.75-6.92-9.66-18.12-17.29-4.55-3.1-11.11-6.34-15.59-7.72-.45-.14,1.35-1.33,1.66-1.22,4.54,1.54,10.51,4.55,14.89,7.54,9.37,6.39,20.14,16.95,18.73,19.41-.31.55-1.03,1.11-1.53,1.46.14.79.31,2.15-.03,2.72-.31.52-1.08.79-1.75.91.06.7.02,1.58-.43,2.04-.49.49-1.57.59-2.31.59-.37.96-1.26,2.01-1.94,2.26-.9.34-2.17-.29-3.04-.88-.81.94-2.3,1.83-2.95,1.72Z"/><path class="cls-18" d="m111.38,117.23c4.74-2.43,14.44-9.51,14.44-26.65,0-9.01-3.64-17.54-10.26-24.11-1.18-1.18-.44-2.04.79-.92,7.44,6.69,11.38,15.65,11.38,25.12,0,18.02-9.69,25.19-15.69,27.69-2.15.9-2.7-.08-.66-1.13Z"/><path class="cls-18" d="m116.63,66.03c28.66-11.21,52.04-37.93,48.46-43.75-2.13-3.46-36.02,5.26-57.19,37.02-.26.39-1.55-.36-1.29-.75,24.49-36.73,57.55-41.04,59.93-37.17,4,6.5-14.6,32.04-48.87,45.79-.22.09-1.48-.97-1.04-1.15Z"/><path class="cls-18" d="m145.45,48.82c2-5.3,2.58-17.06.75-23.28-.13-.45,1.5-.93,1.63-.48,1.91,6.48,1.75,16.12-.26,22.79-.17.55-2.29,1.41-2.12.97Z"/><path class="cls-12" d="m107.48,54.52c-.71-.18-2.34.87-2.72,2.5s.44,3.22,1.09,3.41c.66.19,2.41-.87,2.69-2.22.28-1.34-.06-3.44-1.06-3.69Z"/><path class="cls-18" d="m105.7,61.02c-1.52-.41-2.07-2.57-1.69-4.16.52-2.17,2.2-3.35,3.56-2.91,1.41.46,1.97,2.54,1.47,4.31-.56,2-2.14,3.07-3.34,2.75Zm1.46-5.81c-.52-.08-1.49.59-1.85,2.06-.28,1.17.12,2.21.68,2.36.57.15,1.29-.35,1.66-1.68.41-1.46-.03-2.65-.5-2.73Z"/></g></svg>